<svg width="601" height="115" viewBox="0 0 601 115" fill="none" xmlns="http://www.w3.org/2000/svg">
<g clip-path="url(#clip0)">
<path fill-rule="evenodd" clip-rule="evenodd" d="M16.0704 71.9334H24.1057C34.8175 71.9334 40.1755 68.1622 40.1755 60.6192C40.1755 56.8899 38.8151 54.0063 36.0933 51.9694C33.3716 49.9324 29.504 48.911 24.4938 48.911H16.0704V71.9334ZM16.0704 34.167H21.254C30.4981 34.167 35.121 31.0425 35.121 24.7902C35.121 21.7503 34.0397 19.4289 31.8812 17.8219C29.7211 16.2182 26.6531 15.4135 22.6799 15.4135H16.0704V34.167ZM-0.000244141 86.6773V0.410156H17.1073C20.8215 0.410156 24.0185 0.518906 26.6975 0.73557C29.374 0.951397 31.7295 1.31947 33.7605 1.83729C35.7891 2.35427 37.5837 3.02518 39.1386 3.84582C40.6936 4.66646 42.2049 5.72552 43.6752 7.02048C45.9208 9.00893 47.7129 11.4709 49.0533 14.4088C50.3911 17.3476 51.0617 20.2838 51.0617 23.2201C51.0617 27.0238 50.2847 30.2403 48.7289 32.8754C47.174 35.5105 44.754 37.78 41.4714 39.6806C44.3231 40.7991 46.6551 42.048 48.4699 43.425C50.2847 44.8027 51.8396 46.6097 53.1355 48.8466C54.0852 50.4837 54.8405 52.355 55.4038 54.4648C55.9645 56.5753 56.2462 58.7897 56.2462 61.1136C56.2462 66.1052 54.9276 70.6242 52.2931 74.6697C49.6568 78.7152 46.008 81.7284 41.3424 83.7093C36.8486 85.6894 30.7571 86.6773 23.0688 86.6773H-0.000244141Z" fill="#231F20"/>
<path fill-rule="evenodd" clip-rule="evenodd" d="M102.664 23H118V86.9069H103.942V80.5243C101.47 83.7304 98.9992 85.9441 96.5292 87.167C94.0568 88.3873 90.9892 89 87.3272 89C83.8331 89 80.51 88.4039 77.3589 87.2124C74.2054 86.0217 71.3932 84.32 68.924 82.1063C66.0259 79.469 63.9808 76.5114 62.7888 73.2334C61.5952 69.9587 61 65.6825 61 60.4047V23H76.3364V55.7601C76.3364 68.6442 80.682 75.0846 89.3723 75.0846C98.2329 75.0846 102.664 68.6442 102.664 55.7601V23Z" fill="#231F20"/>
<path fill-rule="evenodd" clip-rule="evenodd" d="M126 87H141V22.5319H126V87ZM126 15.0538H141V1H126V15.0538Z" fill="#231F20"/>
<path fill-rule="evenodd" clip-rule="evenodd" d="M149 87H164V1H149V87Z" fill="#231F20"/>
<path fill-rule="evenodd" clip-rule="evenodd" d="M203.452 34.3217C200.956 34.3217 198.549 34.8626 196.226 35.9394C193.904 37.0195 191.881 38.4641 190.161 40.2781C188.44 42.0913 187.064 44.2057 186.033 46.6222C185 49.0387 184.485 51.5859 184.485 54.2612C184.485 57.1095 184.978 59.8065 185.968 62.3528C186.956 64.8991 188.31 67.1001 190.033 68.9557C191.752 70.813 193.774 72.2809 196.097 73.3577C198.419 74.4378 200.914 74.9762 203.58 74.9762C206.162 74.9762 208.613 74.4378 210.936 73.3577C213.259 72.2809 215.279 70.813 217 68.9557C218.72 67.1001 220.075 64.9432 221.065 62.4826C222.053 60.0228 222.549 57.4108 222.549 54.6489C222.549 51.8871 222.053 49.2784 221.065 46.817C220.075 44.3564 218.72 42.1995 217 40.3422C215.279 38.4865 213.259 37.0195 210.936 35.9394C208.613 34.8626 206.118 34.3217 203.452 34.3217ZM237 1V86.903H222.806V79.0552C220.311 82.0301 217.043 84.4325 213 86.2598C208.956 88.0855 204.872 89 200.742 89C196.439 89 192.355 88.0772 188.484 86.234C184.613 84.3908 181.236 81.9244 178.356 78.8356C175.472 75.7484 173.194 72.1261 171.516 67.9646C169.839 63.8057 169 59.4095 169 54.7779C169 50.0614 169.859 45.6012 171.581 41.3981C173.301 37.1967 175.623 33.5295 178.548 30.3982C181.472 27.2678 184.914 24.8013 188.871 22.9998C192.827 21.1991 197 20.2979 201.388 20.2979C205 20.2979 208.633 21.0218 212.291 22.4647C215.945 23.911 219.02 25.8224 221.516 28.2023V1H237Z" fill="#231F20"/>
<path fill-rule="evenodd" clip-rule="evenodd" d="M245 87H260V22.5319H245V87ZM245 15.0538H260V1H245V15.0538Z" fill="#231F20"/>
<path fill-rule="evenodd" clip-rule="evenodd" d="M268 86V22.1006H282.25V27.7169C284.988 25.0194 287.726 23.0575 290.467 21.8355C293.204 20.6127 296.286 20 299.709 20C302.02 20 304.287 20.3195 306.514 20.9578C308.738 21.5961 310.814 22.4895 312.74 23.6388C314.666 24.7874 316.419 26.1498 318.004 27.7235C319.587 29.2998 320.847 31.0651 321.791 33.0212C322.989 35.4908 323.823 38.0645 324.294 40.7447C324.764 43.4257 325 47.0224 325 51.5315V86H309.595V54.3901C309.595 40.7414 305.272 33.9154 296.629 33.9154C294.145 33.9154 291.814 34.6635 289.632 36.1547C287.449 37.6492 285.886 39.5474 284.946 41.8494C284.603 42.6173 284.346 43.4282 284.175 44.2819C284.003 45.1349 283.855 46.072 283.726 47.0959C283.598 48.1214 283.512 49.3162 283.47 50.6802C283.425 52.0443 283.405 53.6659 283.405 55.5435V86H268Z" fill="#231F20"/>
<path fill-rule="evenodd" clip-rule="evenodd" d="M365.824 74.3059C368.413 74.3059 370.828 73.7712 373.074 72.6985C375.317 71.629 377.281 70.1935 378.964 68.3918C380.647 66.5909 381.984 64.4686 382.978 62.0255C383.968 59.5817 384.465 56.9461 384.465 54.1171C384.465 51.3741 383.968 48.7823 382.978 46.3385C381.984 43.8946 380.625 41.7525 378.899 39.9078C377.172 38.0648 375.145 36.6077 372.814 35.535C370.484 34.4655 368.025 33.9283 365.436 33.9283C362.759 33.9283 360.277 34.4432 357.992 35.4714C355.704 36.5011 353.72 37.9152 352.036 39.7161C350.354 41.5169 349.015 43.6178 348.024 46.017C347.03 48.417 346.535 50.989 346.535 53.732C346.535 56.6469 347.03 59.3478 348.024 61.833C349.015 64.319 350.374 66.4835 352.102 68.3265C353.827 70.1711 355.855 71.629 358.186 72.6985C360.516 73.7712 363.061 74.3059 365.824 74.3059ZM385.76 22.0802H400V74.3919C400 80.7887 399.114 86.2458 397.347 90.7657C395.576 95.2856 392.751 99.3361 388.867 102.919C385.586 105.902 381.876 108.161 377.734 109.698C373.591 111.231 369.19 112 364.53 112C360.817 112 357.28 111.51 353.914 110.531C350.548 109.55 347.461 108.145 344.658 106.314C341.852 104.482 339.371 102.268 337.215 99.67C335.056 97.0708 333.331 94.1534 332.036 90.917H349.642C353.785 95.6873 359.048 98.0733 365.436 98.0733C371.132 98.0733 375.813 96.2493 379.481 92.6046C383.148 88.9583 385.155 84.1268 385.501 78.106C379.718 84.8582 372.598 88.2343 364.141 88.2343C359.566 88.2343 355.274 87.3177 351.26 85.4863C347.247 83.6557 343.752 81.1639 340.775 78.0118C337.796 74.8613 335.423 71.1968 333.654 67.0223C331.884 62.8495 331 58.3776 331 53.6056C331 49.0055 331.862 44.6616 333.59 40.5723C335.315 36.4829 337.688 32.906 340.71 29.839C343.73 26.7728 347.247 24.3662 351.26 22.6199C355.274 20.8752 359.566 20 364.141 20C368.802 20 372.879 20.8248 376.375 22.4703C379.87 24.115 382.997 26.6266 385.76 30.0027V22.0802Z" fill="#231F20"/>
<path fill-rule="evenodd" clip-rule="evenodd" d="M407 87V1H422.926V72.3017H449V87H407Z" fill="#D81F33"/>
<path fill-rule="evenodd" clip-rule="evenodd" d="M453 87H468V22.5319H453V87ZM453 15.0538H468V1H453V15.0538Z" fill="#D81F33"/>
<path fill-rule="evenodd" clip-rule="evenodd" d="M476 86V22.1006H490.25V27.7169C492.988 25.0194 495.726 23.0575 498.467 21.8355C501.204 20.6127 504.286 20 507.709 20C510.02 20 512.287 20.3195 514.514 20.9578C516.738 21.5961 518.814 22.4895 520.74 23.6388C522.666 24.7874 524.419 26.1498 526.003 27.7235C527.587 29.2998 528.847 31.0651 529.791 33.0212C530.989 35.4908 531.823 38.0645 532.294 40.7447C532.764 43.4257 533 47.0224 533 51.5315V86H517.595V54.3901C517.595 40.7414 513.272 33.9154 504.629 33.9154C502.145 33.9154 499.814 34.6635 497.632 36.1547C495.449 37.6492 493.886 39.5474 492.946 41.8494C492.603 42.6173 492.346 43.4282 492.175 44.2819C492.003 45.1349 491.855 46.072 491.726 47.0959C491.598 48.1214 491.512 49.3162 491.47 50.6802C491.425 52.0443 491.405 53.6659 491.405 55.5435V86H476Z" fill="#D81F33"/>
<path fill-rule="evenodd" clip-rule="evenodd" d="M541 87V1H556.475V52.8323L577.108 22.5325H595.034L571.821 54.1216L598 87H578.527L556.475 56.8286V87H541Z" fill="#D81F33"/>
</g>
<defs>
<clipPath id="clip0">
<rect width="601" height="115" fill="white"/>
</clipPath>
</defs>
</svg>
